<svg width="279" height="80" viewBox="0 0 279 80" fill="none" xmlns="http://www.w3.org/2000/svg">
<g clip-path="url(#clip0_4_2)">
<g filter="url(#filter0_d_4_2)">
<path d="M73.5598 29.568C76.8664 29.568 79.4051 30.1547 81.1758 31.328C82.9464 32.48 83.8318 34.3787 83.8318 37.024C83.8318 39.6907 82.9358 41.6213 81.1438 42.816C79.3518 43.9893 76.7918 44.576 73.4638 44.576H71.8958V52H66.9038V30.144C67.9918 29.9307 69.1438 29.7813 70.3598 29.696C71.5758 29.6107 72.6424 29.568 73.5598 29.568ZM73.8798 33.824C73.5171 33.824 73.1544 33.8347 72.7917 33.856C72.4504 33.8773 72.1518 33.8987 71.8958 33.92V40.32H73.4638C75.1918 40.32 76.4931 40.0853 77.3678 39.616C78.2424 39.1467 78.6798 38.272 78.6798 36.992C78.6798 36.3733 78.5624 35.8613 78.3278 35.456C78.1144 35.0507 77.7944 34.7307 77.3678 34.496C76.9624 34.24 76.4611 34.0693 75.8638 33.984C75.2664 33.8773 74.6051 33.824 73.8798 33.824ZM101.546 51.424C100.735 51.6587 99.6895 51.872 98.4095 52.064C97.1295 52.2773 95.7855 52.384 94.3775 52.384C92.9482 52.384 91.7535 52.192 90.7935 51.808C89.8548 51.424 89.1082 50.8907 88.5535 50.208C87.9988 49.504 87.6042 48.672 87.3695 47.712C87.1348 46.752 87.0175 45.696 87.0175 44.544V35.168H91.7855V43.968C91.7855 45.504 91.9882 46.6133 92.3935 47.296C92.7988 47.9787 93.5562 48.32 94.6655 48.32C95.0068 48.32 95.3695 48.3093 95.7535 48.288C96.1375 48.2453 96.4788 48.2027 96.7775 48.16V35.168H101.546V51.424ZM110.853 48.576C111.728 48.576 112.347 48.4907 112.709 48.32C113.072 48.1493 113.253 47.8187 113.253 47.328C113.253 46.944 113.019 46.6133 112.549 46.336C112.08 46.0373 111.365 45.7067 110.405 45.344C109.659 45.0667 108.976 44.7787 108.357 44.48C107.76 44.1813 107.248 43.8293 106.821 43.424C106.395 42.9973 106.064 42.496 105.829 41.92C105.595 41.344 105.477 40.6507 105.477 39.84C105.477 38.2613 106.064 37.0133 107.237 36.096C108.411 35.1787 110.021 34.72 112.069 34.72C113.093 34.72 114.075 34.816 115.013 35.008C115.952 35.1787 116.699 35.3707 117.253 35.584L116.421 39.296C115.867 39.104 115.259 38.9333 114.597 38.784C113.957 38.6347 113.232 38.56 112.421 38.56C110.928 38.56 110.181 38.976 110.181 39.808C110.181 40 110.213 40.1707 110.277 40.32C110.341 40.4693 110.469 40.6187 110.661 40.768C110.853 40.896 111.109 41.0453 111.429 41.216C111.771 41.3653 112.197 41.536 112.709 41.728C113.755 42.112 114.619 42.496 115.301 42.88C115.984 43.2427 116.517 43.648 116.901 44.096C117.307 44.5227 117.584 45.0027 117.733 45.536C117.904 46.0693 117.989 46.688 117.989 47.392C117.989 49.056 117.36 50.3147 116.101 51.168C114.864 52.0213 113.104 52.448 110.821 52.448C109.328 52.448 108.08 52.32 107.077 52.064C106.096 51.808 105.413 51.5947 105.029 51.424L105.829 47.552C106.64 47.872 107.472 48.128 108.325 48.32C109.179 48.4907 110.021 48.576 110.853 48.576ZM126.321 41.248C126.79 40.736 127.27 40.2027 127.76 39.648C128.273 39.0933 128.763 38.5493 129.233 38.016C129.702 37.4613 130.139 36.9387 130.545 36.448C130.971 35.9573 131.334 35.5307 131.633 35.168H137.297C136.166 36.4693 135.057 37.7173 133.969 38.912C132.902 40.0853 131.729 41.3013 130.449 42.56C131.089 43.136 131.75 43.8293 132.433 44.64C133.115 45.4293 133.777 46.2507 134.417 47.104C135.057 47.9573 135.643 48.8107 136.177 49.664C136.71 50.5173 137.158 51.296 137.521 52H132.049C131.707 51.4453 131.313 50.8373 130.865 50.176C130.438 49.4933 129.979 48.8213 129.489 48.16C128.998 47.4773 128.475 46.8267 127.921 46.208C127.387 45.5893 126.854 45.0667 126.321 44.64V52H121.553V27.936L126.321 27.168V41.248ZM146.203 48.672C146.673 48.672 147.121 48.6613 147.547 48.64C147.974 48.6187 148.315 48.5867 148.571 48.544V44.928C148.379 44.8853 148.091 44.8427 147.707 44.8C147.323 44.7573 146.971 44.736 146.651 44.736C146.203 44.736 145.777 44.768 145.371 44.832C144.987 44.8747 144.646 44.9707 144.347 45.12C144.049 45.2693 143.814 45.472 143.643 45.728C143.473 45.984 143.387 46.304 143.387 46.688C143.387 47.4347 143.633 47.9573 144.123 48.256C144.635 48.5333 145.329 48.672 146.203 48.672ZM145.819 34.72C147.227 34.72 148.401 34.88 149.339 35.2C150.278 35.52 151.025 35.9787 151.579 36.576C152.155 37.1733 152.561 37.8987 152.795 38.752C153.03 39.6053 153.147 40.5547 153.147 41.6V51.52C152.465 51.6693 151.515 51.84 150.299 52.032C149.083 52.2453 147.611 52.352 145.883 52.352C144.795 52.352 143.803 52.256 142.907 52.064C142.033 51.872 141.275 51.5627 140.635 51.136C139.995 50.688 139.505 50.112 139.163 49.408C138.822 48.704 138.651 47.84 138.651 46.816C138.651 45.8347 138.843 45.0027 139.227 44.32C139.633 43.6373 140.166 43.0933 140.827 42.688C141.489 42.2827 142.246 41.9947 143.099 41.824C143.953 41.632 144.838 41.536 145.755 41.536C146.374 41.536 146.918 41.568 147.387 41.632C147.878 41.6747 148.273 41.7387 148.571 41.824V41.376C148.571 40.5653 148.326 39.9147 147.835 39.424C147.345 38.9333 146.491 38.688 145.275 38.688C144.465 38.688 143.665 38.752 142.875 38.88C142.086 38.9867 141.403 39.1467 140.827 39.36L140.219 35.52C140.497 35.4347 140.838 35.3493 141.243 35.264C141.67 35.1573 142.129 35.072 142.619 35.008C143.11 34.9227 143.622 34.8587 144.155 34.816C144.71 34.752 145.265 34.72 145.819 34.72ZM150.235 29.12L144.955 33.568L142.779 31.616L147.323 26.432L150.235 29.12ZM162.291 48.576C163.165 48.576 163.784 48.4907 164.147 48.32C164.509 48.1493 164.691 47.8187 164.691 47.328C164.691 46.944 164.456 46.6133 163.987 46.336C163.517 46.0373 162.803 45.7067 161.843 45.344C161.096 45.0667 160.413 44.7787 159.795 44.48C159.197 44.1813 158.685 43.8293 158.259 43.424C157.832 42.9973 157.501 42.496 157.267 41.92C157.032 41.344 156.915 40.6507 156.915 39.84C156.915 38.2613 157.501 37.0133 158.675 36.096C159.848 35.1787 161.459 34.72 163.507 34.72C164.531 34.72 165.512 34.816 166.451 35.008C167.389 35.1787 168.136 35.3707 168.691 35.584L167.859 39.296C167.304 39.104 166.696 38.9333 166.035 38.784C165.395 38.6347 164.669 38.56 163.859 38.56C162.365 38.56 161.619 38.976 161.619 39.808C161.619 40 161.651 40.1707 161.715 40.32C161.779 40.4693 161.907 40.6187 162.099 40.768C162.291 40.896 162.547 41.0453 162.867 41.216C163.208 41.3653 163.635 41.536 164.147 41.728C165.192 42.112 166.056 42.496 166.739 42.88C167.421 43.2427 167.955 43.648 168.339 44.096C168.744 44.5227 169.021 45.0027 169.171 45.536C169.341 46.0693 169.427 46.688 169.427 47.392C169.427 49.056 168.797 50.3147 167.539 51.168C166.301 52.0213 164.541 52.448 162.259 52.448C160.765 52.448 159.517 52.32 158.515 52.064C157.533 51.808 156.851 51.5947 156.467 51.424L157.267 47.552C158.077 47.872 158.909 48.128 159.763 48.32C160.616 48.4907 161.459 48.576 162.291 48.576ZM177.502 40.896C177.502 41.984 177.63 42.9653 177.886 43.84C178.163 44.7147 178.547 45.472 179.038 46.112C179.55 46.7307 180.169 47.2107 180.894 47.552C181.619 47.8933 182.451 48.064 183.39 48.064C184.307 48.064 185.129 47.8933 185.854 47.552C186.601 47.2107 187.219 46.7307 187.71 46.112C188.222 45.472 188.606 44.7147 188.862 43.84C189.139 42.9653 189.278 41.984 189.278 40.896C189.278 39.808 189.139 38.8267 188.862 37.952C188.606 37.056 188.222 36.2987 187.71 35.68C187.219 35.04 186.601 34.5493 185.854 34.208C185.129 33.8667 184.307 33.696 183.39 33.696C182.451 33.696 181.619 33.8773 180.894 34.24C180.169 34.5813 179.55 35.072 179.038 35.712C178.547 36.3307 178.163 37.088 177.886 37.984C177.63 38.8587 177.502 39.8293 177.502 40.896ZM194.43 40.896C194.43 42.7947 194.142 44.4693 193.566 45.92C193.011 47.3493 192.243 48.5547 191.262 49.536C190.281 50.496 189.107 51.2213 187.742 51.712C186.398 52.2027 184.947 52.448 183.39 52.448C181.875 52.448 180.446 52.2027 179.102 51.712C177.758 51.2213 176.585 50.496 175.582 49.536C174.579 48.5547 173.79 47.3493 173.214 45.92C172.638 44.4693 172.35 42.7947 172.35 40.896C172.35 38.9973 172.649 37.3333 173.246 35.904C173.843 34.4533 174.643 33.2373 175.646 32.256C176.67 31.2747 177.843 30.5387 179.166 30.048C180.51 29.5573 181.918 29.312 183.39 29.312C184.905 29.312 186.334 29.5573 187.678 30.048C189.022 30.5387 190.195 31.2747 191.198 32.256C192.201 33.2373 192.99 34.4533 193.566 35.904C194.142 37.3333 194.43 38.9973 194.43 40.896ZM204.639 48.192C205.343 48.192 205.919 48.1387 206.367 48.032C206.837 47.904 207.21 47.744 207.487 47.552C207.765 47.3387 207.957 47.0933 208.063 46.816C208.17 46.5387 208.223 46.2293 208.223 45.888C208.223 45.1627 207.882 44.5653 207.199 44.096C206.517 43.6053 205.343 43.0827 203.679 42.528C202.954 42.272 202.229 41.984 201.503 41.664C200.778 41.3227 200.127 40.9067 199.551 40.416C198.975 39.904 198.506 39.296 198.143 38.592C197.781 37.8667 197.599 36.992 197.599 35.968C197.599 34.944 197.791 34.0267 198.175 33.216C198.559 32.384 199.103 31.68 199.807 31.104C200.511 30.528 201.365 30.0907 202.367 29.792C203.37 29.472 204.501 29.312 205.759 29.312C207.253 29.312 208.543 29.472 209.631 29.792C210.719 30.112 211.615 30.464 212.319 30.848L210.879 34.784C210.261 34.464 209.567 34.1867 208.799 33.952C208.053 33.696 207.146 33.568 206.079 33.568C204.885 33.568 204.021 33.7387 203.487 34.08C202.975 34.4 202.719 34.9013 202.719 35.584C202.719 35.9893 202.815 36.3307 203.007 36.608C203.199 36.8853 203.466 37.1413 203.807 37.376C204.17 37.5893 204.575 37.792 205.023 37.984C205.493 38.1547 206.005 38.336 206.559 38.528C207.711 38.9547 208.714 39.3813 209.567 39.808C210.421 40.2133 211.125 40.6933 211.679 41.248C212.255 41.8027 212.682 42.4533 212.959 43.2C213.237 43.9467 213.375 44.8533 213.375 45.92C213.375 47.9893 212.65 49.6 211.199 50.752C209.749 51.8827 207.562 52.448 204.639 52.448C203.658 52.448 202.773 52.384 201.983 52.256C201.194 52.1493 200.49 52.0107 199.871 51.84C199.274 51.6693 198.751 51.488 198.303 51.296C197.877 51.104 197.514 50.9227 197.215 50.752L198.623 46.784C199.285 47.1467 200.095 47.4773 201.055 47.776C202.037 48.0533 203.231 48.192 204.639 48.192Z" fill="url(#paint0_linear_4_2)" fill-opacity="0.65" shape-rendering="crispEdges"/>
</g>
</g>
<defs>
<filter id="filter0_d_4_2" x="62.9038" y="22.432" width="154.471" height="34.016" filterUnits="userSpaceOnUse" color-interpolation-filters="sRGB">
<feFlood flood-opacity="0" result="BackgroundImageFix"/>
<feColorMatrix in="SourceAlpha" type="matrix" values="0 0 0 0 0 0 0 0 0 0 0 0 0 0 0 0 0 0 127 0" result="hardAlpha"/>
<feOffset/>
<feGaussianBlur stdDeviation="2"/>
<feComposite in2="hardAlpha" operator="out"/>
<feColorMatrix type="matrix" values="0 0 0 0 0 0 0 0 0 0 0 0 0 0 0 0 0 0 0.25 0"/>
<feBlend mode="normal" in2="BackgroundImageFix" result="effect1_dropShadow_4_2"/>
<feBlend mode="normal" in="SourceGraphic" in2="effect1_dropShadow_4_2" result="shape"/>
</filter>
<linearGradient id="paint0_linear_4_2" x1="-121" y1="40" x2="400" y2="40" gradientUnits="userSpaceOnUse">
<stop/>
<stop offset="0.384615"/>
<stop offset="1" stop-color="#FD3F92"/>
</linearGradient>
<clipPath id="clip0_4_2">
<rect width="279" height="80" fill="white"/>
</clipPath>
</defs>
</svg>
