<svg width="90" height="22" viewBox="0 0 90 22" fill="none" xmlns="http://www.w3.org/2000/svg">
<g clip-path="url(#clip0_1_30)">
<g filter="url(#filter0_d_1_30)">
<path d="M21.833 7.289C22.9697 7.289 23.8424 7.49067 24.451 7.894C25.0597 8.29 25.364 8.94267 25.364 9.852C25.364 10.7687 25.056 11.4323 24.44 11.843C23.824 12.2463 22.944 12.448 21.8 12.448H21.261V15H19.545V7.487C19.919 7.41367 20.315 7.36233 20.733 7.333C21.151 7.30367 21.5177 7.289 21.833 7.289ZM21.943 8.752C21.8184 8.752 21.6937 8.75567 21.569 8.763C21.4517 8.77033 21.349 8.77767 21.261 8.785V10.985H21.8C22.394 10.985 22.8414 10.9043 23.142 10.743C23.4427 10.5817 23.593 10.281 23.593 9.841C23.593 9.62833 23.5527 9.45233 23.472 9.313C23.3987 9.17367 23.2887 9.06367 23.142 8.983C23.0027 8.895 22.8304 8.83633 22.625 8.807C22.4197 8.77033 22.1924 8.752 21.943 8.752ZM31.4531 14.802C31.1745 14.8827 30.8151 14.956 30.3751 15.022C29.9351 15.0953 29.4731 15.132 28.9891 15.132C28.4978 15.132 28.0871 15.066 27.7571 14.934C27.4345 14.802 27.1778 14.6187 26.9871 14.384C26.7965 14.142 26.6608 13.856 26.5801 13.526C26.4995 13.196 26.4591 12.833 26.4591 12.437V9.214H28.0981V12.239C28.0981 12.767 28.1678 13.1483 28.3071 13.383C28.4465 13.6177 28.7068 13.735 29.0881 13.735C29.2055 13.735 29.3301 13.7313 29.4621 13.724C29.5941 13.7093 29.7115 13.6947 29.8141 13.68V9.214H31.4531V14.802ZM34.6527 13.823C34.9533 13.823 35.166 13.7937 35.2907 13.735C35.4153 13.6763 35.4777 13.5627 35.4777 13.394C35.4777 13.262 35.397 13.1483 35.2357 13.053C35.0743 12.9503 34.8287 12.8367 34.4987 12.712C34.242 12.6167 34.0073 12.5177 33.7947 12.415C33.5893 12.3123 33.4133 12.1913 33.2667 12.052C33.12 11.9053 33.0063 11.733 32.9257 11.535C32.845 11.337 32.8047 11.0987 32.8047 10.82C32.8047 10.2773 33.0063 9.84833 33.4097 9.533C33.813 9.21767 34.3667 9.06 35.0707 9.06C35.4227 9.06 35.76 9.093 36.0827 9.159C36.4053 9.21767 36.662 9.28367 36.8527 9.357L36.5667 10.633C36.376 10.567 36.167 10.5083 35.9397 10.457C35.7197 10.4057 35.4703 10.38 35.1917 10.38C34.6783 10.38 34.4217 10.523 34.4217 10.809C34.4217 10.875 34.4327 10.9337 34.4547 10.985C34.4767 11.0363 34.5207 11.0877 34.5867 11.139C34.6527 11.183 34.7407 11.2343 34.8507 11.293C34.968 11.3443 35.1147 11.403 35.2907 11.469C35.65 11.601 35.947 11.733 36.1817 11.865C36.4163 11.9897 36.5997 12.129 36.7317 12.283C36.871 12.4297 36.9663 12.5947 37.0177 12.778C37.0763 12.9613 37.1057 13.174 37.1057 13.416C37.1057 13.988 36.8893 14.4207 36.4567 14.714C36.0313 15.0073 35.4263 15.154 34.6417 15.154C34.1283 15.154 33.6993 15.11 33.3547 15.022C33.0173 14.934 32.7827 14.8607 32.6507 14.802L32.9257 13.471C33.2043 13.581 33.4903 13.669 33.7837 13.735C34.077 13.7937 34.3667 13.823 34.6527 13.823ZM39.9695 11.304C40.1309 11.128 40.2959 10.9447 40.4645 10.754C40.6405 10.5633 40.8092 10.3763 40.9705 10.193C41.1319 10.0023 41.2822 9.82267 41.4215 9.654C41.5682 9.48533 41.6929 9.33867 41.7955 9.214H43.7425C43.3539 9.66133 42.9725 10.0903 42.5985 10.501C42.2319 10.9043 41.8285 11.3223 41.3885 11.755C41.6085 11.953 41.8359 12.1913 42.0705 12.47C42.3052 12.7413 42.5325 13.0237 42.7525 13.317C42.9725 13.6103 43.1742 13.9037 43.3575 14.197C43.5409 14.4903 43.6949 14.758 43.8195 15H41.9385C41.8212 14.8093 41.6855 14.6003 41.5315 14.373C41.3849 14.1383 41.2272 13.9073 41.0585 13.68C40.8899 13.4453 40.7102 13.2217 40.5195 13.009C40.3362 12.7963 40.1529 12.6167 39.9695 12.47V15H38.3305V6.728L39.9695 6.464V11.304ZM46.8042 13.856C46.9656 13.856 47.1196 13.8523 47.2662 13.845C47.4129 13.8377 47.5302 13.8267 47.6182 13.812V12.569C47.5522 12.5543 47.4532 12.5397 47.3212 12.525C47.1892 12.5103 47.0682 12.503 46.9582 12.503C46.8042 12.503 46.6576 12.514 46.5182 12.536C46.3862 12.5507 46.2689 12.5837 46.1662 12.635C46.0636 12.6863 45.9829 12.756 45.9242 12.844C45.8656 12.932 45.8362 13.042 45.8362 13.174C45.8362 13.4307 45.9206 13.6103 46.0892 13.713C46.2652 13.8083 46.5036 13.856 46.8042 13.856ZM46.6722 9.06C47.1562 9.06 47.5596 9.115 47.8822 9.225C48.2049 9.335 48.4616 9.49267 48.6522 9.698C48.8502 9.90333 48.9896 10.1527 49.0702 10.446C49.1509 10.7393 49.1912 11.0657 49.1912 11.425V14.835C48.9566 14.8863 48.6302 14.945 48.2122 15.011C47.7942 15.0843 47.2882 15.121 46.6942 15.121C46.3202 15.121 45.9792 15.088 45.6712 15.022C45.3706 14.956 45.1102 14.8497 44.8902 14.703C44.6702 14.549 44.5016 14.351 44.3842 14.109C44.2669 13.867 44.2082 13.57 44.2082 13.218C44.2082 12.8807 44.2742 12.5947 44.4062 12.36C44.5456 12.1253 44.7289 11.9383 44.9562 11.799C45.1836 11.6597 45.4439 11.5607 45.7372 11.502C46.0306 11.436 46.3349 11.403 46.6502 11.403C46.8629 11.403 47.0499 11.414 47.2112 11.436C47.3799 11.4507 47.5156 11.4727 47.6182 11.502V11.348C47.6182 11.0693 47.5339 10.8457 47.3652 10.677C47.1966 10.5083 46.9032 10.424 46.4852 10.424C46.2066 10.424 45.9316 10.446 45.6602 10.49C45.3889 10.5267 45.1542 10.5817 44.9562 10.655L44.7472 9.335C44.8426 9.30567 44.9599 9.27633 45.0992 9.247C45.2459 9.21033 45.4036 9.181 45.5722 9.159C45.7409 9.12967 45.9169 9.10767 46.1002 9.093C46.2909 9.071 46.4816 9.06 46.6722 9.06ZM48.1902 7.135L46.3752 8.664L45.6272 7.993L47.1892 6.211L48.1902 7.135ZM52.3343 13.823C52.635 13.823 52.8477 13.7937 52.9723 13.735C53.097 13.6763 53.1593 13.5627 53.1593 13.394C53.1593 13.262 53.0787 13.1483 52.9173 13.053C52.756 12.9503 52.5103 12.8367 52.1803 12.712C51.9237 12.6167 51.689 12.5177 51.4763 12.415C51.271 12.3123 51.095 12.1913 50.9483 12.052C50.8017 11.9053 50.688 11.733 50.6073 11.535C50.5267 11.337 50.4863 11.0987 50.4863 10.82C50.4863 10.2773 50.688 9.84833 51.0913 9.533C51.4947 9.21767 52.0483 9.06 52.7523 9.06C53.1043 9.06 53.4417 9.093 53.7643 9.159C54.087 9.21767 54.3437 9.28367 54.5343 9.357L54.2483 10.633C54.0577 10.567 53.8487 10.5083 53.6213 10.457C53.4013 10.4057 53.152 10.38 52.8733 10.38C52.36 10.38 52.1033 10.523 52.1033 10.809C52.1033 10.875 52.1143 10.9337 52.1363 10.985C52.1583 11.0363 52.2023 11.0877 52.2683 11.139C52.3343 11.183 52.4223 11.2343 52.5323 11.293C52.6497 11.3443 52.7963 11.403 52.9723 11.469C53.3317 11.601 53.6287 11.733 53.8633 11.865C54.098 11.9897 54.2813 12.129 54.4133 12.283C54.5527 12.4297 54.648 12.5947 54.6993 12.778C54.758 12.9613 54.7873 13.174 54.7873 13.416C54.7873 13.988 54.571 14.4207 54.1383 14.714C53.713 15.0073 53.108 15.154 52.3233 15.154C51.81 15.154 51.381 15.11 51.0363 15.022C50.699 14.934 50.4643 14.8607 50.3323 14.802L50.6073 13.471C50.886 13.581 51.172 13.669 51.4653 13.735C51.7587 13.7937 52.0483 13.823 52.3343 13.823ZM57.5632 11.183C57.5632 11.557 57.6072 11.8943 57.6952 12.195C57.7905 12.4957 57.9225 12.756 58.0912 12.976C58.2672 13.1887 58.4799 13.3537 58.7292 13.471C58.9785 13.5883 59.2645 13.647 59.5872 13.647C59.9025 13.647 60.1849 13.5883 60.4342 13.471C60.6909 13.3537 60.9035 13.1887 61.0722 12.976C61.2482 12.756 61.3802 12.4957 61.4682 12.195C61.5635 11.8943 61.6112 11.557 61.6112 11.183C61.6112 10.809 61.5635 10.4717 61.4682 10.171C61.3802 9.863 61.2482 9.60267 61.0722 9.39C60.9035 9.17 60.6909 9.00133 60.4342 8.884C60.1849 8.76667 59.9025 8.708 59.5872 8.708C59.2645 8.708 58.9785 8.77033 58.7292 8.895C58.4799 9.01233 58.2672 9.181 58.0912 9.401C57.9225 9.61367 57.7905 9.874 57.6952 10.182C57.6072 10.4827 57.5632 10.8163 57.5632 11.183ZM63.3822 11.183C63.3822 11.8357 63.2832 12.4113 63.0852 12.91C62.8945 13.4013 62.6305 13.8157 62.2932 14.153C61.9559 14.483 61.5525 14.7323 61.0832 14.901C60.6212 15.0697 60.1225 15.154 59.5872 15.154C59.0665 15.154 58.5752 15.0697 58.1132 14.901C57.6512 14.7323 57.2479 14.483 56.9032 14.153C56.5585 13.8157 56.2872 13.4013 56.0892 12.91C55.8912 12.4113 55.7922 11.8357 55.7922 11.183C55.7922 10.5303 55.8949 9.95833 56.1002 9.467C56.3055 8.96833 56.5805 8.55033 56.9252 8.213C57.2772 7.87567 57.6805 7.62267 58.1352 7.454C58.5972 7.28533 59.0812 7.201 59.5872 7.201C60.1079 7.201 60.5992 7.28533 61.0612 7.454C61.5232 7.62267 61.9265 7.87567 62.2712 8.213C62.6159 8.55033 62.8872 8.96833 63.0852 9.467C63.2832 9.95833 63.3822 10.5303 63.3822 11.183ZM66.8916 13.691C67.1336 13.691 67.3316 13.6727 67.4856 13.636C67.647 13.592 67.7753 13.537 67.8706 13.471C67.966 13.3977 68.032 13.3133 68.0686 13.218C68.1053 13.1227 68.1236 13.0163 68.1236 12.899C68.1236 12.6497 68.0063 12.4443 67.7716 12.283C67.537 12.1143 67.1336 11.9347 66.5616 11.744C66.3123 11.656 66.063 11.557 65.8136 11.447C65.5643 11.3297 65.3406 11.1867 65.1426 11.018C64.9446 10.842 64.7833 10.633 64.6586 10.391C64.534 10.1417 64.4716 9.841 64.4716 9.489C64.4716 9.137 64.5376 8.82167 64.6696 8.543C64.8016 8.257 64.9886 8.015 65.2306 7.817C65.4726 7.619 65.766 7.46867 66.1106 7.366C66.4553 7.256 66.844 7.201 67.2766 7.201C67.79 7.201 68.2336 7.256 68.6076 7.366C68.9816 7.476 69.2896 7.597 69.5316 7.729L69.0366 9.082C68.824 8.972 68.5856 8.87667 68.3216 8.796C68.065 8.708 67.7533 8.664 67.3866 8.664C66.976 8.664 66.679 8.72267 66.4956 8.84C66.3196 8.95 66.2316 9.12233 66.2316 9.357C66.2316 9.49633 66.2646 9.61367 66.3306 9.709C66.3966 9.80433 66.4883 9.89233 66.6056 9.973C66.7303 10.0463 66.8696 10.116 67.0236 10.182C67.185 10.2407 67.361 10.303 67.5516 10.369C67.9476 10.5157 68.2923 10.6623 68.5856 10.809C68.879 10.9483 69.121 11.1133 69.3116 11.304C69.5096 11.4947 69.6563 11.7183 69.7516 11.975C69.847 12.2317 69.8946 12.5433 69.8946 12.91C69.8946 13.6213 69.6453 14.175 69.1466 14.571C68.648 14.9597 67.8963 15.154 66.8916 15.154C66.5543 15.154 66.25 15.132 65.9786 15.088C65.7073 15.0513 65.4653 15.0037 65.2526 14.945C65.0473 14.8863 64.8676 14.824 64.7136 14.758C64.567 14.692 64.4423 14.6297 64.3396 14.571L64.8236 13.207C65.051 13.3317 65.3296 13.4453 65.6596 13.548C65.997 13.6433 66.4076 13.691 66.8916 13.691Z" fill="url(#paint0_linear_1_30)"/>
</g>
</g>
<defs>
<filter id="filter0_d_1_30" x="15.545" y="2.211" width="58.3496" height="16.943" filterUnits="userSpaceOnUse" color-interpolation-filters="sRGB">
<feFlood flood-opacity="0" result="BackgroundImageFix"/>
<feColorMatrix in="SourceAlpha" type="matrix" values="0 0 0 0 0 0 0 0 0 0 0 0 0 0 0 0 0 0 127 0" result="hardAlpha"/>
<feOffset/>
<feGaussianBlur stdDeviation="2"/>
<feComposite in2="hardAlpha" operator="out"/>
<feColorMatrix type="matrix" values="0 0 0 0 0 0 0 0 0 0 0 0 0 0 0 0 0 0 0.25 0"/>
<feBlend mode="normal" in2="BackgroundImageFix" result="effect1_dropShadow_1_30"/>
<feBlend mode="normal" in="SourceGraphic" in2="effect1_dropShadow_1_30" result="shape"/>
</filter>
<linearGradient id="paint0_linear_1_30" x1="-216" y1="11" x2="305" y2="11" gradientUnits="userSpaceOnUse">
<stop/>
<stop offset="0.384615"/>
<stop offset="1" stop-color="#FD3F92"/>
</linearGradient>
<clipPath id="clip0_1_30">
<rect width="90" height="22" fill="white"/>
</clipPath>
</defs>
</svg>
